<svg width="189" height="30" viewBox="0 0 189 30" fill="none" xmlns="http://www.w3.org/2000/svg">
<path d="M27.9602 24.5966L26.5477 22.2172H6.24854L16.4139 4.62924L13.7596 0H10.3343C9.59875 0.00165075 8.87684 0.198509 8.24229 0.570467C7.60774 0.942425 7.0833 1.47615 6.72252 2.11713L0.579695 12.9555C0.222524 13.5812 0.034668 14.2891 0.034668 15.0095C0.034668 15.7299 0.222524 16.4378 0.579695 17.0634L4.88031 24.6471L6.72252 27.8955C7.03829 28.4527 7.47875 28.9292 8.00942 29.2877C8.54008 29.6462 9.14654 29.8771 9.7813 29.9621C9.96347 29.9875 10.1472 30.0002 10.3311 30H22.4809C23.2162 30.0004 23.9384 29.8058 24.574 29.4361C25.2096 29.0665 25.7358 28.5348 26.099 27.8955L27.9286 24.6471L27.9602 24.5966Z" fill="url(#paint0_linear_40362_12603)"/>
<path d="M26.5478 22.2172H6.28662L6.37194 22.1666L13.172 18.0777C14.2211 17.3952 15.0111 16.9971 15.7537 16.8675C15.7705 16.866 15.7874 16.866 15.8042 16.8675L15.9496 16.8485L16.2024 16.8296H16.354C16.4756 16.8329 16.5969 16.8424 16.7174 16.858C17.4916 16.9623 18.3226 17.3478 19.4539 18.0019L26.5099 22.1919L26.5478 22.2172Z" fill="url(#paint1_linear_40362_12603)"/>
<path d="M27.9602 24.5963L27.9255 24.6564L26.0927 27.8921C25.7311 28.5314 25.2061 29.0631 24.5715 29.4328C23.9369 29.8026 23.2154 29.9972 22.481 29.9966H10.3312C10.1473 29.9967 9.96353 29.9841 9.78136 29.9586C9.14556 29.8743 8.53793 29.6438 8.00614 29.2853C7.47435 28.9267 7.03285 28.4499 6.71627 27.8921L4.88037 24.6469L6.28336 22.2201L6.35604 22.1758L13.1688 18.068C14.221 17.3854 15.0078 16.9841 15.7536 16.8577C15.7704 16.8562 15.7873 16.8562 15.8041 16.8577L15.9495 16.8388L16.2023 16.8198H16.3539C16.4755 16.8231 16.5968 16.8326 16.7173 16.8483C17.4915 16.9525 18.3194 17.3412 19.4506 17.9921L26.5098 22.1916L26.5509 22.2169L27.9602 24.5963Z" fill="url(#paint2_linear_40362_12603)"/>
<g opacity="0.5">
<path d="M19.4314 17.9923C16.7518 16.4314 15.7502 16.384 13.1496 18.0777L6.26416 22.2171L13.1496 18.9593C15.7502 17.2624 16.7424 17.3224 19.4314 18.8708L26.5285 22.2203L19.4314 17.9923Z" fill="url(#paint3_linear_40362_12603)"/>
</g>
<path d="M32.2357 17.0634L27.9287 24.6471L27.9635 24.5871L26.5478 22.2172L16.4362 4.60712V4.62924L13.7598 0H22.4842C23.2201 0.00206858 23.9423 0.199073 24.5773 0.57096C25.2122 0.942847 25.7374 1.47634 26.0991 2.11713L32.2357 12.9555C32.5913 13.5817 32.7783 14.2894 32.7783 15.0095C32.7783 15.7296 32.5913 16.4373 32.2357 17.0634Z" fill="url(#paint4_linear_40362_12603)"/>
<path d="M0.545027 17.0634L4.85512 24.6471L4.82036 24.5871L6.23283 22.2077L16.3445 4.59764V4.61976L19.0272 0H10.2996C9.56408 0.00165075 8.84217 0.198509 8.20762 0.570467C7.57307 0.942425 7.04863 1.47615 6.68786 2.11713L0.545027 12.9555C0.187856 13.5812 0 14.2891 0 15.0095C0 15.7299 0.187856 16.4378 0.545027 17.0634Z" fill="url(#paint5_linear_40362_12603)"/>
<path opacity="0.51" d="M19.0274 0L16.3921 4.585L16.8819 5.36549L19.0274 0Z" fill="url(#paint6_linear_40362_12603)"/>
<path d="M110.553 24.9758V10.1875H113.991V24.9758H110.553ZM110.124 6.57255C110.124 5.28332 110.958 4.42383 112.272 4.42383C113.612 4.42383 114.421 5.28332 114.421 6.57255C114.421 7.86179 113.612 8.696 112.272 8.696C110.882 8.696 110.124 7.86179 110.124 6.57255Z" fill="#333333"/>
<path d="M100.393 25.2788C96.8288 25.2788 93.1128 22.4475 93.1128 17.5939C93.1128 12.6898 96.7024 9.88379 100.444 9.88379C102.39 9.88379 104.109 10.6674 105.196 11.9567V10.1871H108.609V24.9754H105.196V23.0542C104.109 24.4446 102.34 25.2788 100.393 25.2788ZM100.949 22.1442C103.503 22.1442 105.373 20.0966 105.373 17.5434C105.373 15.0154 103.503 12.9931 100.949 12.9931C98.4214 12.9931 96.4749 14.9902 96.4749 17.5434C96.4749 20.1218 98.4214 22.1442 100.949 22.1442Z" fill="#333333"/>
<path d="M87.9297 23.2311C87.9297 21.9924 88.7133 21.1582 90.0026 21.1582C91.2918 21.1582 92.0502 21.9924 92.0502 23.2311C92.0502 24.4445 91.2665 25.2787 89.9773 25.2787C88.6881 25.2787 87.9297 24.4445 87.9297 23.2311Z" fill="#333333"/>
<path d="M79.3484 25.2788C74.697 25.2788 71.5371 21.8914 71.5371 17.6192C71.5371 13.2965 74.8992 9.88379 79.222 9.88379C83.6205 9.88379 86.831 13.1195 86.831 17.4928V18.782H74.7981C75.2784 20.8802 76.9216 22.2706 79.3484 22.2706C81.2696 22.2706 82.7358 21.2594 83.4436 19.6668L86.2496 21.2847C84.9603 23.6862 82.6852 25.2788 79.3484 25.2788ZM79.222 12.892C77.1744 12.892 75.5818 14.1054 74.9751 15.9255H83.3677C82.8622 13.9284 81.3454 12.892 79.222 12.892Z" fill="#333333"/>
<path d="M62.8985 24.9758L57.2612 10.1875H60.8256L64.6427 20.6025L68.384 10.1875H71.8978L66.3364 24.9758H62.8985Z" fill="#333333"/>
<path d="M42.4526 24.9757L49.0252 6.52197H52.4885L59.061 24.9757H55.4714L54.3338 21.6894H47.1798L46.0423 24.9757H42.4526ZM50.7695 11.4008L48.3427 18.4032H53.1963L50.7695 11.4008Z" fill="#333333"/>
<path d="M186.899 8.67578V24.9998H184.875V23.1518C184.405 23.7971 183.811 24.2884 183.093 24.6258C182.374 24.9631 181.582 25.1318 180.717 25.1318C179.587 25.1318 178.575 24.8825 177.681 24.3838C176.786 23.8851 176.082 23.1884 175.569 22.2938C175.07 21.3844 174.821 20.3431 174.821 19.1698C174.821 17.9964 175.07 16.9624 175.569 16.0678C176.082 15.1731 176.786 14.4764 177.681 13.9778C178.575 13.4791 179.587 13.2298 180.717 13.2298C181.553 13.2298 182.323 13.3911 183.027 13.7138C183.731 14.0218 184.317 14.4838 184.787 15.0998V8.67578H186.899ZM180.893 23.2838C181.626 23.2838 182.293 23.1151 182.895 22.7778C183.496 22.4258 183.965 21.9418 184.303 21.3258C184.64 20.6951 184.809 19.9764 184.809 19.1698C184.809 18.3631 184.64 17.6518 184.303 17.0358C183.965 16.4051 183.496 15.9211 182.895 15.5838C182.293 15.2464 181.626 15.0778 180.893 15.0778C180.145 15.0778 179.47 15.2464 178.869 15.5838C178.282 15.9211 177.813 16.4051 177.461 17.0358C177.123 17.6518 176.955 18.3631 176.955 19.1698C176.955 19.9764 177.123 20.6951 177.461 21.3258C177.813 21.9418 178.282 22.4258 178.869 22.7778C179.47 23.1151 180.145 23.2838 180.893 23.2838Z" fill="#333333"/>
<path d="M171.878 13.3398V24.9998H169.876V23.2398C169.451 23.8412 168.886 24.3105 168.182 24.6478C167.493 24.9705 166.737 25.1318 165.916 25.1318C164.361 25.1318 163.137 24.7065 162.242 23.8558C161.347 22.9905 160.9 21.7218 160.9 20.0498V13.3398H163.012V19.8078C163.012 20.9372 163.283 21.7952 163.826 22.3818C164.369 22.9538 165.146 23.2398 166.158 23.2398C167.273 23.2398 168.153 22.9025 168.798 22.2278C169.443 21.5532 169.766 20.5998 169.766 19.3678V13.3398H171.878Z" fill="#333333"/>
<path d="M152.039 25.132C150.881 25.132 149.839 24.8753 148.915 24.362C147.991 23.8486 147.265 23.1446 146.737 22.25C146.224 21.3406 145.967 20.314 145.967 19.17C145.967 18.026 146.224 17.0066 146.737 16.112C147.265 15.2026 147.991 14.4986 148.915 14C149.839 13.4866 150.881 13.23 152.039 13.23C153.198 13.23 154.232 13.4866 155.141 14C156.065 14.4986 156.784 15.2026 157.297 16.112C157.825 17.0066 158.089 18.026 158.089 19.17C158.089 20.314 157.825 21.3406 157.297 22.25C156.784 23.1446 156.065 23.8486 155.141 24.362C154.232 24.8753 153.198 25.132 152.039 25.132ZM152.039 23.284C152.787 23.284 153.455 23.1153 154.041 22.778C154.643 22.426 155.112 21.942 155.449 21.326C155.787 20.6953 155.955 19.9766 155.955 19.17C155.955 18.3633 155.787 17.652 155.449 17.036C155.112 16.4053 154.643 15.9213 154.041 15.584C153.455 15.2466 152.787 15.078 152.039 15.078C151.291 15.078 150.617 15.2466 150.015 15.584C149.429 15.9213 148.959 16.4053 148.607 17.036C148.27 17.652 148.101 18.3633 148.101 19.17C148.101 19.9766 148.27 20.6953 148.607 21.326C148.959 21.942 149.429 22.426 150.015 22.778C150.617 23.1153 151.291 23.284 152.039 23.284Z" fill="#333333"/>
<path d="M140.9 8.67578H143.012V24.9998H140.9V8.67578Z" fill="#333333"/>
<path d="M132.196 25.1758C130.656 25.1758 129.263 24.8385 128.016 24.1638C126.784 23.4745 125.816 22.5358 125.112 21.3478C124.408 20.1452 124.056 18.7958 124.056 17.2998C124.056 15.8038 124.408 14.4618 125.112 13.2738C125.816 12.0712 126.791 11.1325 128.038 10.4578C129.285 9.76849 130.678 9.42383 132.218 9.42383C133.421 9.42383 134.521 9.62916 135.518 10.0398C136.515 10.4358 137.366 11.0298 138.07 11.8218L136.64 13.2078C135.481 11.9905 134.037 11.3818 132.306 11.3818C131.162 11.3818 130.128 11.6385 129.204 12.1518C128.28 12.6652 127.554 13.3765 127.026 14.2858C126.513 15.1805 126.256 16.1852 126.256 17.2998C126.256 18.4145 126.513 19.4265 127.026 20.3358C127.554 21.2305 128.28 21.9345 129.204 22.4478C130.128 22.9612 131.162 23.2178 132.306 23.2178C134.022 23.2178 135.467 22.6018 136.64 21.3698L138.07 22.7558C137.366 23.5478 136.508 24.1492 135.496 24.5598C134.499 24.9705 133.399 25.1758 132.196 25.1758Z" fill="#333333"/>
<defs>
<linearGradient id="paint0_linear_40362_12603" x1="24.398" y1="27.333" x2="0.678077" y2="10.2588" gradientUnits="userSpaceOnUse">
<stop stop-color="#8B4FDD"/>
<stop offset="1" stop-color="#12B886"/>
</linearGradient>
<linearGradient id="paint1_linear_40362_12603" x1="23.9633" y1="21.7383" x2="21.2007" y2="13.7041" gradientUnits="userSpaceOnUse">
<stop stop-color="#8B4FDD"/>
<stop offset="1" stop-color="#12B886"/>
</linearGradient>
<linearGradient id="paint2_linear_40362_12603" x1="25.0161" y1="28.8252" x2="14.5168" y2="14.6039" gradientUnits="userSpaceOnUse">
<stop stop-color="#8B4FDD"/>
<stop offset="1" stop-color="#12B886"/>
</linearGradient>
<linearGradient id="paint3_linear_40362_12603" x1="23.9436" y1="21.7397" x2="21.1646" y2="13.6839" gradientUnits="userSpaceOnUse">
<stop stop-color="#8B4FDD"/>
<stop offset="1" stop-color="#12B886"/>
</linearGradient>
<linearGradient id="paint4_linear_40362_12603" x1="30.3523" y1="22.456" x2="12.267" y2="11.6644" gradientUnits="userSpaceOnUse">
<stop stop-color="#8B4FDD"/>
<stop offset="1" stop-color="#12B886"/>
</linearGradient>
<linearGradient id="paint5_linear_40362_12603" x1="16.6001" y1="22.456" x2="-1.48915" y2="11.6572" gradientUnits="userSpaceOnUse">
<stop stop-color="#8B4FDD"/>
<stop offset="1" stop-color="#12B886"/>
</linearGradient>
<linearGradient id="paint6_linear_40362_12603" x1="18.6913" y1="4.88851" x2="15.7214" y2="3.76049" gradientUnits="userSpaceOnUse">
<stop stop-color="#8B4FDD"/>
<stop offset="1" stop-color="#12B886"/>
</linearGradient>
</defs>
</svg>
